<svg width="34" height="34" viewBox="0 0 34 34" fill="none" xmlns="http://www.w3.org/2000/svg">
<rect width="34" height="34" rx="6" fill="white"/>
<path d="M22.3601 15.0583C22.3601 15.0583 21.9827 20.1165 21.6807 22.3058C21.6807 23.2117 20.8503 23.9667 19.9443 23.9667C19.9443 23.9667 19.9443 23.9667 19.8688 23.9667C17.906 23.9667 15.9431 24.0422 13.9803 23.9667C13.0743 23.9667 12.3194 23.2872 12.2439 22.3813C12.0174 20.192 11.5645 15.1338 11.5645 15.1338" stroke="#828D99" stroke-miterlimit="10" stroke-linecap="round" stroke-linejoin="round"/>
<path d="M23.417 12.5669H10.583" stroke="#828D99" stroke-miterlimit="10" stroke-linecap="round" stroke-linejoin="round"/>
<path d="M20.9256 12.5668C20.3217 12.5668 19.7932 12.1138 19.7177 11.5854L19.5667 10.6794C19.4912 10.2265 19.0383 10 18.6608 10H15.4145C14.9616 10 14.5841 10.302 14.5086 10.6794L14.2821 11.5854C14.1311 12.1893 13.6782 12.5668 13.0742 12.5668" stroke="#828D99" stroke-miterlimit="10" stroke-linecap="round" stroke-linejoin="round"/>
</svg>
